# xmcd
#
# Track frame offsets:
#	150
#	15225
#	38435
#	60612
#	94413
#	109429
#	131025
#	149223
#	172822
#	184630
#	199934
#	211057
#	242194
#	283495
#
# Disc length: 3982 seconds
#
# Revision: 1
# Processed by: cddbd v1.4PL0 Copyright (c) Steve Scherf et al.
# Submitted via: audiograbber 1.81.03
#
DISCID=d20f8c0e
DTITLE=Rock Bottom - Tone
DYEAR=1996
DGENRE=Blues
TTITLE0=In The Night
TTITLE1=Frog Leg Man
TTITLE2=Large Women
TTITLE3=Rock's Talkin' Blues
TTITLE4=Man Of Stone
TTITLE5=St Pete Boogie
TTITLE6=Monkey Tonight
TTITLE7=Give Up On My Drinkin'
TTITLE8=Goover Dust
TTITLE9=Rocket 69
TTITLE10=Never Turn Away
TTITLE11=Root Man
TTITLE12=Chemical Bank
TTITLE13=Whisperin' Monkeys
EXTD=
EXTT0=
EXTT1=
EXTT2=
EXTT3=
EXTT4=
EXTT5=
EXTT6=
EXTT7=
EXTT8=
EXTT9=
EXTT10=
EXTT11=
EXTT12=
EXTT13=
PLAYORDER=
